<svg width="11" height="10" viewBox="0 0 11 10" fill="none" xmlns="http://www.w3.org/2000/svg">
<g clip-path="url(#clip0_9_531)">
<path d="M3.26282 4.6412C3.26282 3.53058 3.26282 2.97527 3.60784 2.63024C3.95287 2.28522 4.50818 2.28522 5.6188 2.28522H6.79679C7.9074 2.28522 8.4627 2.28522 8.80774 2.63024C9.15277 2.97527 9.15277 3.53058 9.15277 4.6412V6.60452C9.15277 7.71513 9.15277 8.27043 8.80774 8.61546C8.4627 8.9605 7.9074 8.9605 6.79679 8.9605H5.6188C4.50818 8.9605 3.95287 8.9605 3.60784 8.61546C3.26282 8.27043 3.26282 7.71513 3.26282 6.60452V4.6412Z" stroke="black" stroke-width="0.942393"/>
<path opacity="0.5" d="M3.26283 7.78246C2.61224 7.78246 2.08484 7.25507 2.08484 6.60447V4.24849C2.08484 2.76766 2.08484 2.02725 2.54487 1.56721C3.00491 1.10718 3.74532 1.10718 5.22615 1.10718H6.7968C7.44741 1.10718 7.97479 1.63458 7.97479 2.28517" stroke="black" stroke-width="0.942393"/>
</g>
<defs>
<clipPath id="clip0_9_531">
<rect width="9.42393" height="9.42393" fill="white" transform="translate(0.906738 0.32196)"/>
</clipPath>
</defs>
</svg>
