<svg width="11" height="10" viewBox="0 0 11 10" fill="none" xmlns="http://www.w3.org/2000/svg">
<g clip-path="url(#clip0_9_595)">
<path d="M3.00635 4.4738C3.00635 3.36432 3.00635 2.80958 3.35102 2.46491C3.69569 2.12024 4.25043 2.12024 5.3599 2.12024H6.53668C7.64615 2.12024 8.20088 2.12024 8.54556 2.46491C8.89024 2.80958 8.89024 3.36432 8.89024 4.4738V6.43509C8.89024 7.54456 8.89024 8.09929 8.54556 8.44397C8.20088 8.78865 7.64615 8.78865 6.53668 8.78865H5.3599C4.25043 8.78865 3.69569 8.78865 3.35102 8.44397C3.00635 8.09929 3.00635 7.54456 3.00635 6.43509V4.4738Z" stroke="white" stroke-width="0.941423"/>
<path opacity="0.5" d="M3.00637 7.61195C2.35645 7.61195 1.82959 7.08511 1.82959 6.43517V4.08162C1.82959 2.60231 1.82959 1.86267 2.28915 1.4031C2.74871 0.943543 3.48836 0.943542 4.96767 0.943542H6.5367C7.18664 0.943542 7.71348 1.47041 7.71348 2.12032" stroke="white" stroke-width="0.941423"/>
</g>
<defs>
<clipPath id="clip0_9_595">
<rect width="9.41423" height="9.41423" fill="white" transform="translate(0.652588 0.159058)"/>
</clipPath>
</defs>
</svg>
