<svg width="16" height="16" viewBox="0 0 16 16" fill="none" xmlns="http://www.w3.org/2000/svg">
<g clip-path="url(#clip0_9_582)">
<path d="M7.65286 14.2427C11.1191 14.2427 13.929 11.4328 13.929 7.96658C13.929 7.67618 13.4938 7.62817 13.3436 7.87671C12.6292 9.05901 11.3316 9.84943 9.84951 9.84943C7.59644 9.84943 5.77001 8.023 5.77001 5.76993C5.77001 4.28778 6.56043 2.99025 7.74273 2.27584C7.99127 2.12566 7.94326 1.69043 7.65286 1.69043C4.18664 1.69043 1.37671 4.50036 1.37671 7.96658C1.37671 11.4328 4.18664 14.2427 7.65286 14.2427Z" fill="black"/>
<path d="M12.6108 1.88323C12.5098 1.62616 12.1473 1.62616 12.0463 1.88323L11.7762 2.57064C11.7454 2.64913 11.6835 2.71125 11.6053 2.74221L10.9204 3.01332C10.6642 3.1147 10.6642 3.47851 10.9204 3.57989L11.6053 3.85101C11.6835 3.88196 11.7454 3.94408 11.7762 4.02257L12.0463 4.70998C12.1473 4.96705 12.5098 4.96705 12.6108 4.70999L12.8809 4.02257C12.9117 3.94408 12.9736 3.88196 13.0518 3.85101L13.7367 3.57989C13.9929 3.47851 13.9929 3.1147 13.7367 3.01332L13.0518 2.74221C12.9736 2.71125 12.9117 2.64913 12.8809 2.57064L12.6108 1.88323Z" fill="black"/>
<path d="M10.1839 5.53746C10.0829 5.2804 9.72045 5.2804 9.6194 5.53746L9.52093 5.7881C9.49011 5.86658 9.42823 5.9287 9.35003 5.95966L9.1003 6.05851C8.84417 6.15989 8.84417 6.52369 9.1003 6.62508L9.35003 6.72392C9.42823 6.75486 9.49011 6.817 9.52093 6.89551L9.6194 7.14612C9.72045 7.40319 10.0829 7.40319 10.1839 7.14612L10.2824 6.89551C10.3132 6.817 10.3751 6.75486 10.4533 6.72392L10.703 6.62508C10.9592 6.52369 10.9592 6.15989 10.703 6.05851L10.4533 5.95966C10.3751 5.9287 10.3132 5.86658 10.2824 5.7881L10.1839 5.53746Z" fill="black"/>
<path opacity="0.5" d="M7.65286 14.2427C11.1191 14.2427 13.929 11.4328 13.929 7.96658C13.929 7.67618 13.4938 7.62817 13.3436 7.87671C12.6292 9.05901 11.3316 9.84943 9.84951 9.84943C7.59644 9.84943 5.77001 8.023 5.77001 5.76993C5.77001 4.28778 6.56043 2.99025 7.74273 2.27584C7.99127 2.12566 7.94326 1.69043 7.65286 1.69043C4.18664 1.69043 1.37671 4.50036 1.37671 7.96658C1.37671 11.4328 4.18664 14.2427 7.65286 14.2427Z" fill="black"/>
</g>
<defs>
<clipPath id="clip0_9_582">
<rect width="15.0628" height="15.0628" fill="white" transform="translate(0.121338 0.435181)"/>
</clipPath>
</defs>
</svg>
