<svg width="16" height="16" viewBox="0 0 16 16" fill="none" xmlns="http://www.w3.org/2000/svg">
<path d="M11.0192 7.98917C11.0192 10.071 9.33154 11.7587 7.24967 11.7587C5.1678 11.7587 3.4801 10.071 3.4801 7.98917C3.4801 5.9073 5.1678 4.2196 7.24967 4.2196C9.33154 4.2196 11.0192 5.9073 11.0192 7.98917Z" fill="white"/>
<path fill-rule="evenodd" clip-rule="evenodd" d="M7.24978 1.23535C7.51001 1.23535 7.72098 1.44632 7.72098 1.70655V2.33481C7.72098 2.59504 7.51001 2.80601 7.24978 2.80601C6.98956 2.80601 6.77859 2.59504 6.77859 2.33481V1.70655C6.77859 1.44632 6.98956 1.23535 7.24978 1.23535ZM2.47412 3.2135C2.65813 3.02949 2.95648 3.02949 3.14049 3.2135L3.3873 3.46031C3.57131 3.64432 3.57131 3.94266 3.3873 4.12668C3.20328 4.31069 2.90494 4.31069 2.72093 4.12668L2.47412 3.87987C2.29011 3.69586 2.29011 3.39751 2.47412 3.2135ZM12.0253 3.21367C12.2093 3.39768 12.2093 3.69603 12.0253 3.88004L11.7785 4.12684C11.5945 4.31086 11.2961 4.31086 11.1121 4.12684C10.9281 3.94283 10.9281 3.64448 11.1121 3.46047L11.3589 3.21367C11.5429 3.02965 11.8412 3.02965 12.0253 3.21367ZM0.495972 7.98916C0.495972 7.72894 0.706936 7.51797 0.967168 7.51797H1.59543C1.85566 7.51797 2.06663 7.72894 2.06663 7.98916C2.06663 8.24939 1.85566 8.46036 1.59543 8.46036H0.967168C0.706936 8.46036 0.495972 8.24939 0.495972 7.98916ZM12.4329 7.98916C12.4329 7.72894 12.6439 7.51797 12.9041 7.51797H13.5324C13.7926 7.51797 14.0036 7.72894 14.0036 7.98916C14.0036 8.24939 13.7926 8.46036 13.5324 8.46036H12.9041C12.6439 8.46036 12.4329 8.24939 12.4329 7.98916ZM11.1121 11.8515C11.2961 11.6674 11.5945 11.6674 11.7785 11.8515L12.0253 12.0983C12.2093 12.2823 12.2093 12.5806 12.0253 12.7646C11.8412 12.9487 11.5429 12.9487 11.3589 12.7646L11.1121 12.5179C10.9281 12.3338 10.9281 12.0355 11.1121 11.8515ZM3.3873 11.8517C3.57131 12.0357 3.57131 12.334 3.3873 12.5181L3.14049 12.7648C2.95648 12.9489 2.65813 12.9489 2.47412 12.7648C2.29011 12.5808 2.29011 12.2825 2.47412 12.0984L2.72093 11.8517C2.90494 11.6676 3.20328 11.6676 3.3873 11.8517ZM7.24978 13.1723C7.51001 13.1723 7.72098 13.3833 7.72098 13.6435V14.2718C7.72098 14.532 7.51001 14.743 7.24978 14.743C6.98956 14.743 6.77859 14.532 6.77859 14.2718V13.6435C6.77859 13.3833 6.98956 13.1723 7.24978 13.1723Z" fill="white"/>
</svg>
